<svg width="246" height="85" viewBox="0 0 246 85" fill="none" xmlns="http://www.w3.org/2000/svg">
<path d="M5.19233 83.7781C-1.6 72.782 -6.19067 51.211 29.7852 52.8955C29.0826 38.39 35.6875 13.7308 67.7285 31.1373C66.5574 22.7148 69.696 4.88708 91.6188 0.956568C113.542 -2.97395 118.554 19.4394 118.32 31.1373C127.923 22.0129 146.426 11.7654 143.615 43.771C149.471 39.0918 162.727 32.541 168.911 43.771C175.094 55.001 168.676 64.8273 164.695 68.3367C170.082 63.8915 185.774 58.3701 205.449 71.8461C216.001 79.0738 225.273 82.4519 232.397 83.7781H245.5C243.111 84.5374 238.556 84.9246 232.397 83.7781H5.19233Z" fill="white"/>
<path d="M5.19233 83.7781C-1.6 72.782 -6.19067 51.211 29.7852 52.8955C29.0826 38.39 35.6875 13.7308 67.7285 31.1373C66.5574 22.7148 69.696 4.88708 91.6188 0.956568C113.542 -2.97395 118.554 19.4394 118.32 31.1373C127.923 22.0129 146.426 11.7654 143.615 43.771C149.471 39.0918 162.727 32.541 168.911 43.771C175.094 55.0011 168.676 64.8273 164.695 68.3367C170.082 63.8915 185.774 58.3701 205.449 71.8461C225.123 85.3222 240.347 85.4158 245.5 83.7781H5.19233Z" stroke="white"/>
</svg>
