<svg width="235" height="62" viewBox="0 0 235 62" fill="none" xmlns="http://www.w3.org/2000/svg">
<path d="M230.344 60.5H0.343506C5.11762 59.3767 16.0138 56.6245 21.4058 54.6025C24.7757 41.1226 35.7281 42.8076 40.7831 45.3351C45.501 35.2253 55.1054 37.191 59.3179 39.4376C52.5779 20.9028 58.4754 0.682968 87.9626 1.52546C111.552 2.19945 113.518 20.9028 111.552 30.1702C123.01 25.4522 125.875 32.136 125.875 36.0676C129.245 22.5876 129.245 14.1628 155.362 14.1628C176.256 14.1628 176.424 34.9444 173.897 45.3351C184.007 33.2033 197.767 43.0885 203.384 49.5476C213.494 49.5476 225.569 56.8492 230.344 60.5Z" fill="white" stroke="white" stroke-width="3"/>
</svg>
