<svg width="1200" height="1500" viewBox="0 0 1200 1500" fill="none" xmlns="http://www.w3.org/2000/svg">
  <rect width="1200" height="1500" fill="#D9CCBD"/>
  <rect x="0" y="0" width="1200" height="210" fill="#605147"/>
  <rect x="0" y="210" width="1200" height="1290" fill="#E2D7C7"/>
  <rect x="928" y="0" width="144" height="1500" fill="#F2EEE8"/>
  <path d="M236 436C366 454 476 622 520 806L586 1500H300L252 952C226 748 202 596 172 470L236 436Z" fill="#FFFFFF"/>
  <path d="M310 308C256 308 214 350 214 404C214 460 256 502 310 502C364 502 406 460 406 404C406 350 364 308 310 308Z" fill="#E0B59C"/>
  <path d="M432 378C572 442 726 574 844 722L904 652C790 492 630 360 482 302L432 378Z" fill="#293245"/>
  <path d="M524 1168C626 1098 706 998 784 900L852 980C776 1090 692 1206 580 1284L524 1168Z" fill="#668848"/>
  <circle cx="250" cy="308" r="34" fill="#E9DCC8"/>
  <circle cx="212" cy="272" r="18" fill="#F3E7D4"/>
</svg>
