<svg width="1200" height="1500" viewBox="0 0 1200 1500" fill="none" xmlns="http://www.w3.org/2000/svg">
  <rect width="1200" height="1500" fill="#E7D9CC"/>
  <rect x="0" y="0" width="1200" height="760" fill="#DDE7F2"/>
  <rect x="0" y="760" width="1200" height="740" fill="#F8EEE6"/>
  <path d="M0 1110C170 1044 348 1012 532 1012C760 1012 982 1070 1200 1180V1500H0V1110Z" fill="#FBF4EC"/>
  <path d="M690 254C648 332 616 452 600 604L520 1500H828L776 670C796 542 854 406 930 270L690 254Z" fill="#FFF9F6"/>
  <path d="M722 178C672 178 632 220 632 272C632 326 672 368 722 368C774 368 814 326 814 272C814 220 774 178 722 178Z" fill="#E5B9A4"/>
  <path d="M494 1294C588 1228 668 1132 742 1028L822 1090C740 1204 654 1310 546 1384L494 1294Z" fill="#C98C42"/>
</svg>
