<svg width="1200" height="1500" viewBox="0 0 1200 1500" fill="none" xmlns="http://www.w3.org/2000/svg">
  <rect width="1200" height="1500" fill="#E5D4C4"/>
  <rect y="0" width="1200" height="520" fill="#8FBAE5"/>
  <rect y="520" width="1200" height="980" fill="#F3E4D5"/>
  <path d="M0 1012C174 936 361 900 560 900C790 900 1003 972 1200 1100V1500H0V1012Z" fill="#F9EFE5"/>
  <path d="M714 358C674 420 644 516 630 650L552 1330H832L776 688C812 572 876 450 950 344L714 358Z" fill="#FFFFFF"/>
  <path d="M736 246C689 246 650 287 650 338C650 390 689 430 736 430C784 430 822 390 822 338C822 287 784 246 736 246Z" fill="#E4B69D"/>
  <path d="M848 324C918 382 1002 470 1062 564L1118 522C1050 420 958 336 880 286L848 324Z" fill="#27324A"/>
  <path d="M584 1352C660 1284 724 1210 780 1134L848 1200C796 1276 718 1366 634 1436L584 1352Z" fill="#D68A3A"/>
</svg>
